<?xml version="1.0" encoding="utf-8"?>
<svg xmlns="http://www.w3.org/2000/svg" xmlns:xlink="http://www.w3.org/1999/xlink" style="margin: auto; background: rgba(0, 0, 0, 0) none repeat scroll 0% 0%; display: block; z-index: 1; position: relative; --darkreader-inline-bgcolor:#181a1b; --darkreader-inline-bgimage:none; shape-rendering: auto;" width="1366" height="670" preserveAspectRatio="xMidYMid" viewBox="0 0 1366 670" data-darkreader-inline-bgcolor="" data-darkreader-inline-bgimage="">
<g transform=""><linearGradient id="lg-0.4638994549815767" x1="0" x2="1" y1="0" y2="0">
  <stop stop-color="#ff00ff" offset="0"></stop>
  <stop stop-color="#00ffff" offset="1"></stop>
</linearGradient><path d="M 1242 335 C 1242 496 980 726 826 776 C 672 826 330 792 235 661 C 140 530 162 156 257 25 C 352 -106 682 -185 836 -135 C 990 -85 1242 174 1242 335" fill="url(#lg-0.4638994549815767)" opacity="0.4">
  <animate attributeName="d" dur="10s" repeatCount="indefinite" keyTimes="0;0.3333333333333333;0.6666666666666666;1" calcmod="spline" keySplines="0.3 0.1 0.7 0.9;0.3 0.1 0.7 0.9;0.3 0.1 0.7 0.9" begin="-4s" values="M 1242 335 C 1242 496 980 726 826 776 C 672 826 330 792 235 661 C 140 530 162 156 257 25 C 352 -106 682 -185 836 -135 C 990 -85 1242 174 1242 335;M 1323 335 C 1323 506 989 726 827 779 C 665 832 341 794 241 656 C 141 518 106 127 206 -11 C 306 -149 669 -174 831 -121 C 993 -68 1323 164 1323 335;M 1291 335 C 1291 493 977 729 827 778 C 677 827 407 729 315 602 C 223 475 137 133 230 6 C 323 -121 662 -111 812 -62 C 962 -13 1291 177 1291 335;M 1242 335 C 1242 496 980 726 826 776 C 672 826 330 792 235 661 C 140 530 162 156 257 25 C 352 -106 682 -185 836 -135 C 990 -85 1242 174 1242 335"></animate>
</path><path d="M 1337 335 C 1337 501 992 750 834 801 C 676 852 347 785 249 650 C 151 515 141 146 239 12 C 337 -122 655 -117 813 -66 C 971 -15 1337 169 1337 335" fill="url(#lg-0.4638994549815767)" opacity="0.4">
  <animate attributeName="d" dur="10s" repeatCount="indefinite" keyTimes="0;0.3333333333333333;0.6666666666666666;1" calcmod="spline" keySplines="0.3 0.1 0.7 0.9;0.3 0.1 0.7 0.9;0.3 0.1 0.7 0.9" begin="-4s" values="M 1337 335 C 1337 501 992 750 834 801 C 676 852 347 785 249 650 C 151 515 141 146 239 12 C 337 -122 655 -117 813 -66 C 971 -15 1337 169 1337 335;M 1320 335 C 1320 517 1016 771 843 827 C 670 883 257 869 150 722 C 43 575 154 175 261 28 C 368 -119 645 -138 818 -82 C 991 -26 1320 153 1320 335;M 1196 335 C 1196 492 976 730 827 778 C 678 826 370 756 278 629 C 186 502 223 194 315 67 C 407 -60 662 -107 811 -59 C 960 -11 1196 178 1196 335;M 1337 335 C 1337 501 992 750 834 801 C 676 852 347 785 249 650 C 151 515 141 146 239 12 C 337 -122 655 -117 813 -66 C 971 -15 1337 169 1337 335"></animate>
</path><path d="M 1192 335 C 1192 497 948 627 794 677 C 640 727 292 819 197 688 C 102 557 198 183 293 52 C 388 -79 652 -94 806 -44 C 960 6 1192 173 1192 335" fill="url(#lg-0.4638994549815767)" opacity="0.4">
  <animate attributeName="d" dur="10s" repeatCount="indefinite" keyTimes="0;0.3333333333333333;0.6666666666666666;1" calcmod="spline" keySplines="0.3 0.1 0.7 0.9;0.3 0.1 0.7 0.9;0.3 0.1 0.7 0.9" begin="-4s" values="M 1192 335 C 1192 497 948 627 794 677 C 640 727 292 819 197 688 C 102 557 198 183 293 52 C 388 -79 652 -94 806 -44 C 960 6 1192 173 1192 335;M 1347 335 C 1347 506 964 644 801 697 C 638 750 320 809 220 671 C 120 533 112 131 212 -7 C 312 -145 642 -92 805 -39 C 968 14 1347 164 1347 335;M 1307 335 C 1307 502 963 655 804 707 C 645 759 332 796 234 661 C 136 526 105 122 203 -13 C 301 -148 657 -125 816 -73 C 975 -21 1307 168 1307 335;M 1192 335 C 1192 497 948 627 794 677 C 640 727 292 819 197 688 C 102 557 198 183 293 52 C 388 -79 652 -94 806 -44 C 960 6 1192 173 1192 335"></animate>
</path><path d="M 1301 335 C 1301 498 976 711 821 761 C 666 811 291 822 195 690 C 99 558 110 121 206 -11 C 302 -143 657 -113 812 -63 C 967 -13 1301 172 1301 335" fill="url(#lg-0.4638994549815767)" opacity="0.4">
  <animate attributeName="d" dur="10s" repeatCount="indefinite" keyTimes="0;0.3333333333333333;0.6666666666666666;1" calcmod="spline" keySplines="0.3 0.1 0.7 0.9;0.3 0.1 0.7 0.9;0.3 0.1 0.7 0.9" begin="-4s" values="M 1301 335 C 1301 498 976 711 821 761 C 666 811 291 822 195 690 C 99 558 110 121 206 -11 C 302 -143 657 -113 812 -63 C 967 -13 1301 172 1301 335;M 1373 335 C 1373 515 1013 764 841 820 C 669 876 315 825 209 679 C 103 533 108 141 214 -5 C 320 -151 640 -118 812 -62 C 984 -6 1373 155 1373 335;M 1237 335 C 1237 494 973 714 822 763 C 671 812 329 789 236 660 C 143 531 131 129 224 1 C 317 -127 646 -63 797 -14 C 948 35 1237 176 1237 335;M 1301 335 C 1301 498 976 711 821 761 C 666 811 291 822 195 690 C 99 558 110 121 206 -11 C 302 -143 657 -113 812 -63 C 967 -13 1301 172 1301 335"></animate>
</path><path d="M 1217 335 C 1217 499 972 695 816 746 C 660 797 311 809 214 676 C 117 543 201 188 298 55 C 395 -78 646 -83 802 -32 C 958 19 1217 171 1217 335" fill="url(#lg-0.4638994549815767)" opacity="0.4">
  <animate attributeName="d" dur="10s" repeatCount="indefinite" keyTimes="0;0.3333333333333333;0.6666666666666666;1" calcmod="spline" keySplines="0.3 0.1 0.7 0.9;0.3 0.1 0.7 0.9;0.3 0.1 0.7 0.9" begin="-4s" values="M 1217 335 C 1217 499 972 695 816 746 C 660 797 311 809 214 676 C 117 543 201 188 298 55 C 395 -78 646 -83 802 -32 C 958 19 1217 171 1217 335;M 1300 335 C 1300 515 1021 791 849 847 C 677 903 334 811 228 665 C 122 519 82 121 188 -25 C 294 -171 638 -113 810 -57 C 982 -1 1300 155 1300 335;M 1399 335 C 1399 517 1011 756 838 812 C 665 868 291 845 184 698 C 77 551 99 135 206 -12 C 313 -159 660 -182 833 -126 C 1006 -70 1399 153 1399 335;M 1217 335 C 1217 499 972 695 816 746 C 660 797 311 809 214 676 C 117 543 201 188 298 55 C 395 -78 646 -83 802 -32 C 958 19 1217 171 1217 335"></animate>
</path></g>
</svg>